<svg width="52" height="53" viewBox="0 0 52 53" fill="none" xmlns="http://www.w3.org/2000/svg">
<path d="M3.6 51V14.5H11.25L21.4 44C21.3 42.9333 21.1833 41.6833 21.05 40.25C20.95 38.7833 20.8667 37.3 20.8 35.8C20.7333 34.2667 20.7 32.9333 20.7 31.8V14.5H26.4V51H18.75L8.7 21.5C8.76667 22.4667 8.85 23.6333 8.95 25C9.05 26.3667 9.13333 27.7667 9.2 29.2C9.26667 30.6333 9.3 31.95 9.3 33.15V51H3.6Z" fill="#D04747"/>
<path d="M23.4741 51V14.5H34.3241C36.7908 14.5 38.9241 14.9667 40.7241 15.9C42.5575 16.8333 43.9741 18.15 44.9741 19.85C45.9741 21.55 46.4741 23.5667 46.4741 25.9V39.55C46.4741 41.85 45.9741 43.8667 44.9741 45.6C43.9741 47.3 42.5575 48.6333 40.7241 49.6C38.9241 50.5333 36.7908 51 34.3241 51H23.4741ZM29.7241 45.25H34.3241C36.1241 45.25 37.5575 44.75 38.6241 43.75C39.6908 42.7167 40.2241 41.3167 40.2241 39.55V25.9C40.2241 24.1667 39.6908 22.8 38.6241 21.8C37.5575 20.7667 36.1241 20.25 34.3241 20.25H29.7241V45.25Z" fill="#D04747"/>
</svg>
